<svg xmlns="http://www.w3.org/2000/svg" width="505.73" height="237" viewBox="0 0 505.73 237"><defs><style>.cls-1{fill:#fff;}</style></defs><g id="Capa_2" data-name="Capa 2"><g id="Capa_1-2" data-name="Capa 1"><path class="cls-1" d="M37.2,34.85c-2.54-2.3-5.25-5.3-7.37-7.55,2.7-9,5.09-18.16,7.61-27.3l-.09,13.58Z"/><path class="cls-1" d="M45.14,24.83c-.74-2.94-1.48-5.94-2.24-8.92,5.41-1.45,10.5-3.57,16-4.84Z"/><path class="cls-1" d="M26.39,26.78c-2.95.79-6.16,1.64-9.33,2.4l-3.85-15.9C18,18,21.59,22,26.39,26.78Z"/><path class="cls-1" d="M73.91,35.13H53.08c-4.61-.28-10.41.18-15.32,0,2.28-2.21,4.66-4.88,7.06-6.83C54.41,30.56,64.22,32.84,73.91,35.13Z"/><path class="cls-1" d="M20.87,35.13c4.63.27,10.46,0,15.94.23l-7.1,7.21C19.75,40.17,10,37.31,0,34.93Z"/><path class="cls-1" d="M44.82,43.47C42.25,52.52,40,61.73,37.54,70.78c-.34-11.22-.25-23.4-.1-35C40,38.66,42.34,40.59,44.82,43.47Z"/><path class="cls-1" d="M31.94,55.32c-5.53,1.3-11,3.24-16.62,4.56,4.95-4.75,9.1-9.46,14.2-14.09C30.09,49.08,31.35,52.2,31.94,55.32Z"/><path class="cls-1" d="M79,122.72a40.37,40.37,0,0,1-12.22-1.83,27,27,0,0,1-9.95-5.66,25.29,25.29,0,0,1-6.5-9.44A34.08,34.08,0,0,1,48,92.7a48.48,48.48,0,0,1,3.26-17.92,44.22,44.22,0,0,1,9.14-14.43,43.44,43.44,0,0,1,14.11-9.58,45.78,45.78,0,0,1,18.09-3.53A45.19,45.19,0,0,1,104.2,48.7a44.58,44.58,0,0,1,10.69,4.24L110.58,72.5h-2.91a21.67,21.67,0,0,0-7.56-6.72,20.41,20.41,0,0,0-9.54-2.24,18.28,18.28,0,0,0-15.4,7.71c-3.93,5.14-5.88,11.53-5.88,19.23,0,5.31,1.19,9.26,3.62,11.93s6.1,4,11.22,4a21.22,21.22,0,0,0,10.7-2.77,37.2,37.2,0,0,0,8.33-6.1h2.92l-4.34,19.66A68.62,68.62,0,0,1,91,121.44,45.76,45.76,0,0,1,79,122.72Z"/><path class="cls-1" d="M188,75.43A58.62,58.62,0,0,1,185,94.32a44.34,44.34,0,0,1-8.43,15.06,38.76,38.76,0,0,1-13.17,10.09A40.83,40.83,0,0,1,145.85,123q-14.22,0-21.88-7.62t-7.59-21.17a57.68,57.68,0,0,1,2.83-18.13,45.4,45.4,0,0,1,8.41-15.17,39.35,39.35,0,0,1,13.29-10.25A41.21,41.21,0,0,1,158.54,47q14.29,0,21.89,7.55C185.46,59.61,188,66.55,188,75.43ZM161.39,98.9a36.28,36.28,0,0,0,4-9.75,52.88,52.88,0,0,0,1.34-12.93c0-4.35-.89-7.67-2.58-10.1s-4.41-3.49-8.1-3.49a13.13,13.13,0,0,0-7.62,2.29,22.67,22.67,0,0,0-5.73,6.72,38.13,38.13,0,0,0-3.7,10,56.38,56.38,0,0,0-1.29,12.15c0,4.87.91,8.42,2.87,10.49a10.29,10.29,0,0,0,8,3.17,12.9,12.9,0,0,0,7.08-2.22A19.06,19.06,0,0,0,161.39,98.9Z"/><path class="cls-1" d="M235.15,21.62l-20.47,99.16H194.14L214.6,21.62Z"/><path class="cls-1" d="M307.44,75.43a59.9,59.9,0,0,1-3,18.88A45.77,45.77,0,0,1,296,109.38a38.42,38.42,0,0,1-13.21,10.09A40.2,40.2,0,0,1,265.29,123q-14.27,0-21.9-7.62c-5.06-5.09-7.64-12.15-7.63-21.17a56.85,56.85,0,0,1,2.86-18.13A44.36,44.36,0,0,1,247,60.92a40.46,40.46,0,0,1,13.29-10.25A41.09,41.09,0,0,1,277.94,47c9.54,0,16.84,2.55,21.92,7.55S307.41,66.55,307.44,75.43ZM280.84,98.9a36.49,36.49,0,0,0,4-9.75,54,54,0,0,0,1.32-12.93c0-4.35-.85-7.67-2.53-10.1s-4.43-3.49-8.17-3.49a12.73,12.73,0,0,0-7.55,2.29,22.36,22.36,0,0,0-5.81,6.71,38.25,38.25,0,0,0-3.65,10,55.19,55.19,0,0,0-1.32,12.16c0,4.86.94,8.41,2.87,10.48a10.4,10.4,0,0,0,7.94,3.17,13,13,0,0,0,7.13-2.22A19.43,19.43,0,0,0,280.84,98.9Z"/><path class="cls-1" d="M388.25,65.39c0,1.26-.11,2.67-.23,4.12a28.54,28.54,0,0,1-.75,4.66l-9.52,46.61H357.07l7.31-35.49c.53-2.69.94-4.9,1.28-6.78a37,37,0,0,0,.46-5.22c0-2.8-.66-4.78-1.92-6.09s-3.56-1.92-6.87-1.92a16.29,16.29,0,0,0-5.64,1.17,41.53,41.53,0,0,0-7.14,3.6l-10.44,50.73H313.52l14.74-71.64h20.57l-1.63,8a75.69,75.69,0,0,1,11.49-7.26,25.07,25.07,0,0,1,11.49-2.59c5.68,0,10.11,1.49,13.35,4.65S388.25,59.46,388.25,65.39Z"/><path class="cls-1" d="M431.57,49.13l-14.69,71.65H396.36l14.73-71.64ZM438,21.53,434.38,39l-21.7,0,3.58-17.41Z"/><path class="cls-1" d="M476.2,113.2c-1.24.93-2.82,2-4.67,3.36a29.37,29.37,0,0,1-5,3.15,40.07,40.07,0,0,1-6,2.24,31.92,31.92,0,0,1-7.68.77q-8,0-13-5c-3.36-3.32-5-7.7-5-13.06a27.27,27.27,0,0,1,3.57-14.4A24.46,24.46,0,0,1,449,80.87,52.79,52.79,0,0,1,464.72,76c6-1,12.64-1.65,19.68-2.1.06-.29.15-.68.31-1.29a14.53,14.53,0,0,0,.13-2,6.46,6.46,0,0,0-3.73-6.34c-2.5-1.24-6.24-1.85-11.16-1.85a39.12,39.12,0,0,0-11.13,1.87c-4.05,1.29-7.11,2.33-9.18,3.18h-1.88l3-16.88a110.48,110.48,0,0,1,11-2.29,90.11,90.11,0,0,1,14.94-1.25c9.93,0,17.33,1.45,21.95,4.38s7,7.5,7,13.66c0,.83,0,2-.18,3.34a24.13,24.13,0,0,1-.54,3.56l-10,48.71H474.66ZM481.69,87c-3.65.31-7.09.75-10.24,1.21a38.25,38.25,0,0,0-8.16,2A10.39,10.39,0,0,0,456.18,101c0,2.46.81,4.18,2.39,5.19a13.77,13.77,0,0,0,7.06,1.46,15.76,15.76,0,0,0,6.5-1.55,29.61,29.61,0,0,0,6.43-4Z"/><path class="cls-1" d="M34.08,212.74c-10.9,0-19.27-2.72-25.24-8.07S0,191.77,0,182.26A53.26,53.26,0,0,1,2.9,164.38,42.78,42.78,0,0,1,11.27,150a36.83,36.83,0,0,1,13.05-9.45A41.06,41.06,0,0,1,41.55,137c9.54,0,16.7,2.15,21.52,6.51s7.24,10.7,7.24,19.06a46.14,46.14,0,0,1-.75,8.49c-.51,2.75-1.22,5.49-2,8.24H20v1.45c0,5,1.52,8.82,4.67,11.67s7.9,4.15,14.29,4.15A32.41,32.41,0,0,0,51.72,194a52.86,52.86,0,0,0,10.54-5.61h2.26l-3.83,18.43a59.39,59.39,0,0,1-12.57,4.39A64.38,64.38,0,0,1,34.08,212.74Zm15.68-46.93a14.71,14.71,0,0,0,.27-2.07c0-.63.07-1.32.07-2,0-3.32-.91-5.9-2.77-7.72s-4.58-2.66-8.1-2.66a15.58,15.58,0,0,0-10.7,3.83A23.67,23.67,0,0,0,22,165.81Z"/><path class="cls-1" d="M100.22,174.39l-18-35.23h22l10.23,21.76,18.33-21.76h23.56l-32.79,36,18.19,35.6h-22l-10.27-21.88L90.61,210.79H67.07Z"/><path class="cls-1" d="M228.31,162.13a66,66,0,0,1-2.89,19.11,53,53,0,0,1-7.84,16,41.08,41.08,0,0,1-11.68,11,27.71,27.71,0,0,1-14.54,4A32.41,32.41,0,0,1,182,210.9a28.53,28.53,0,0,1-7.75-3.65L168.06,237H147.53l20.17-97.85h20.55l-1.52,7.47a64.61,64.61,0,0,1,10.7-6.9,23,23,0,0,1,10.82-2.47c6.43,0,11.44,2.18,14.83,6.58S228.31,154.32,228.31,162.13Zm-26.71,25.1a33,33,0,0,0,3.75-9.45,49.55,49.55,0,0,0,1.32-11.67c0-3.89-.77-6.81-2.28-8.9s-4.22-3.09-8.11-3.09a16.32,16.32,0,0,0-5.9,1.17,46.92,46.92,0,0,0-6.09,3.11l-7.41,36a15.54,15.54,0,0,0,4.21,1.41,27.52,27.52,0,0,0,4.95.46,16.93,16.93,0,0,0,9.17-2.49A19.25,19.25,0,0,0,201.6,187.23Z"/><path class="cls-1" d="M290.78,161H289a17.34,17.34,0,0,0-3.87-.7c-1.68-.14-3.29-.21-4.92-.21a44.25,44.25,0,0,0-7.78.63,41.94,41.94,0,0,0-7.69,2.13l-9.87,48H234.29L249,139.16h20.53l-2.16,10.51A66.37,66.37,0,0,1,279,141.91,25.46,25.46,0,0,1,290.59,139c.64,0,1.51,0,2.39.06s1.67.09,2.38.18Z"/><path class="cls-1" d="M328.06,212.74c-10.91,0-19.25-2.72-25.21-8.07S294,191.77,294,182.26a53.77,53.77,0,0,1,2.88-17.88,43.31,43.31,0,0,1,8.4-14.38,36.37,36.37,0,0,1,13.06-9.44A40.91,40.91,0,0,1,335.55,137c9.51,0,16.7,2.14,21.52,6.51s7.26,10.7,7.26,19.06a48.93,48.93,0,0,1-.79,8.49,74.79,74.79,0,0,1-2,8.24H314c0,.22,0,.48,0,.72s0,.47,0,.73c0,5,1.53,8.82,4.67,11.67s7.93,4.15,14.3,4.15A32.86,32.86,0,0,0,345.74,194a50.81,50.81,0,0,0,10.46-5.61h2.26l-3.78,18.43a59.39,59.39,0,0,1-12.57,4.39A64.4,64.4,0,0,1,328.06,212.74Zm15.71-46.94c.11-.71.18-1.42.22-2.06s.1-1.32.1-2c0-3.32-.91-5.9-2.81-7.72s-4.55-2.66-8.08-2.66a15.46,15.46,0,0,0-10.64,3.85A23.16,23.16,0,0,0,316,165.81Z"/><path class="cls-1" d="M393.77,212.74A69.93,69.93,0,0,1,378,211a49.17,49.17,0,0,1-11.75-4l3.93-18.91,1.89,0a33.38,33.38,0,0,0,3.15,2.72,32.34,32.34,0,0,0,5.35,3,41.11,41.11,0,0,0,7,2.53,32.1,32.1,0,0,0,8.61,1.06c4.57,0,8-.58,10.35-1.76a5.64,5.64,0,0,0,3.38-5.09,4.12,4.12,0,0,0-2.45-3.92c-1.58-.9-5-2-10.09-3.32q-13-3.37-17.79-8.12a16,16,0,0,1-4.79-11.93,22.46,22.46,0,0,1,9.62-19.14q9.67-6.88,26.07-6.91a62.92,62.92,0,0,1,14.32,1.63,44.14,44.14,0,0,1,10.5,3.44l-3.76,18.12h-1.77a32.58,32.58,0,0,0-9.74-5.7,31.62,31.62,0,0,0-11.7-2.23c-4.4,0-7.74.6-10.07,1.7a5.89,5.89,0,0,0-3.53,5.43c0,1.84,1.06,3.32,3,4.32a48.22,48.22,0,0,0,9.52,3.09c8,1.94,13.75,4.43,17.31,7.36s5.33,7.18,5.33,12.52a22,22,0,0,1-9.77,18.88C413.64,210.43,404.83,212.74,393.77,212.74Z"/><path class="cls-1" d="M462.74,212.74A70,70,0,0,1,446.9,211a47.78,47.78,0,0,1-11.75-4l3.93-18.93H441a30.77,30.77,0,0,0,3.14,2.72,30.43,30.43,0,0,0,5.43,3,34.49,34.49,0,0,0,7,2.53,31.77,31.77,0,0,0,8.52,1.07c4.62,0,8-.59,10.31-1.77a5.59,5.59,0,0,0,3.45-5.09,4.19,4.19,0,0,0-2.48-3.92c-1.57-.9-5-2-10.05-3.32-8.7-2.25-14.6-5-17.81-8.12a16.14,16.14,0,0,1-4.81-11.93,22.44,22.44,0,0,1,9.64-19.14c6.44-4.57,15.13-6.91,26.09-6.91a62.58,62.58,0,0,1,14.28,1.63,45,45,0,0,1,10.55,3.44l-3.81,18.12h-1.74a32,32,0,0,0-9.74-5.7,31.63,31.63,0,0,0-11.72-2.22c-4.41,0-7.73.59-10.05,1.68a5.85,5.85,0,0,0-3.48,5.44c0,1.87,1,3.32,3,4.32a47.29,47.29,0,0,0,9.39,3.09c8.08,1.94,13.83,4.43,17.4,7.34s5.33,7.2,5.33,12.54a22,22,0,0,1-9.78,18.88C482.53,210.43,473.74,212.74,462.74,212.74Z"/></g></g></svg>